<?xml version="1.0" standalone="no"?>
<!DOCTYPE svg PUBLIC "-//W3C//DTD SVG 1.1//EN" "http://www.w3.org/Graphics/SVG/1.1/DTD/svg11.dtd">
<svg xmlns:xlink="http://www.w3.org/1999/xlink" width="80.043ex" height="18.843ex" style="vertical-align: -8.838ex;" viewBox="0 -4307.5 34462.8 8112.8" xmlns="http://www.w3.org/2000/svg">
<defs>
<path stroke-width="10" id="E1-MJMATHI-50" d="M287 628Q287 635 230 637Q206 637 199 638T192 648Q192 649 194 659Q200 679 203 681T397 683Q587 682 600 680Q664 669 707 631T751 530Q751 453 685 389Q616 321 507 303Q500 302 402 301H307L277 182Q247 66 247 59Q247 55 248 54T255 50T272 48T305 46H336Q342 37 342 35Q342 19 335 5Q330 0 319 0Q316 0 282 1T182 2Q120 2 87 2T51 1Q33 1 33 11Q33 13 36 25Q40 41 44 43T67 46Q94 46 127 49Q141 52 146 61Q149 65 218 339T287 628ZM645 554Q645 567 643 575T634 597T609 619T560 635Q553 636 480 637Q463 637 445 637T416 636T404 636Q391 635 386 627Q384 621 367 550T332 412T314 344Q314 342 395 342H407H430Q542 342 590 392Q617 419 631 471T645 554Z"></path>
<path stroke-width="10" id="E1-MJMAIN-2C" d="M78 35T78 60T94 103T137 121Q165 121 187 96T210 8Q210 -27 201 -60T180 -117T154 -158T130 -185T117 -194Q113 -194 104 -185T95 -172Q95 -168 106 -156T131 -126T157 -76T173 -3V9L172 8Q170 7 167 6T161 3T152 1T140 0Q113 0 96 17Z"></path>
<path stroke-width="10" id="E1-MJMATHI-51" d="M399 -80Q399 -47 400 -30T402 -11V-7L387 -11Q341 -22 303 -22Q208 -22 138 35T51 201Q50 209 50 244Q50 346 98 438T227 601Q351 704 476 704Q514 704 524 703Q621 689 680 617T740 435Q740 255 592 107Q529 47 461 16L444 8V3Q444 2 449 -24T470 -66T516 -82Q551 -82 583 -60T625 -3Q631 11 638 11Q647 11 649 2Q649 -6 639 -34T611 -100T557 -165T481 -194Q399 -194 399 -87V-80ZM636 468Q636 523 621 564T580 625T530 655T477 665Q429 665 379 640Q277 591 215 464T153 216Q153 110 207 59Q231 38 236 38V46Q236 86 269 120T347 155Q372 155 390 144T417 114T429 82T435 55L448 64Q512 108 557 185T619 334T636 468ZM314 18Q362 18 404 39L403 49Q399 104 366 115Q354 117 347 117Q344 117 341 117T337 118Q317 118 296 98T274 52Q274 18 314 18Z"></path>
<path stroke-width="10" id="E1-MJMATHI-52" d="M230 637Q203 637 198 638T193 649Q193 676 204 682Q206 683 378 683Q550 682 564 680Q620 672 658 652T712 606T733 563T739 529Q739 484 710 445T643 385T576 351T538 338L545 333Q612 295 612 223Q612 212 607 162T602 80V71Q602 53 603 43T614 25T640 16Q668 16 686 38T712 85Q717 99 720 102T735 105Q755 105 755 93Q755 75 731 36Q693 -21 641 -21H632Q571 -21 531 4T487 82Q487 109 502 166T517 239Q517 290 474 313Q459 320 449 321T378 323H309L277 193Q244 61 244 59Q244 55 245 54T252 50T269 48T302 46H333Q339 38 339 37T336 19Q332 6 326 0H311Q275 2 180 2Q146 2 117 2T71 2T50 1Q33 1 33 10Q33 12 36 24Q41 43 46 45Q50 46 61 46H67Q94 46 127 49Q141 52 146 61Q149 65 218 339T287 628Q287 635 230 637ZM630 554Q630 586 609 608T523 636Q521 636 500 636T462 637H440Q393 637 386 627Q385 624 352 494T319 361Q319 360 388 360Q466 361 492 367Q556 377 592 426Q608 449 619 486T630 554Z"></path>
<path stroke-width="10" id="E1-MJMAIN-3A" d="M78 370Q78 394 95 412T138 430Q162 430 180 414T199 371Q199 346 182 328T139 310T96 327T78 370ZM78 60Q78 84 95 102T138 120Q162 120 180 104T199 61Q199 36 182 18T139 0T96 17T78 60Z"></path>
<path stroke-width="10" id="E1-MJMAIN-3D" d="M56 347Q56 360 70 367H707Q722 359 722 347Q722 336 708 328L390 327H72Q56 332 56 347ZM56 153Q56 168 72 173H708Q722 163 722 153Q722 140 707 133H70Q56 140 56 153Z"></path>
<path stroke-width="10" id="E1-MJMATHI-78" d="M52 289Q59 331 106 386T222 442Q257 442 286 424T329 379Q371 442 430 442Q467 442 494 420T522 361Q522 332 508 314T481 292T458 288Q439 288 427 299T415 328Q415 374 465 391Q454 404 425 404Q412 404 406 402Q368 386 350 336Q290 115 290 78Q290 50 306 38T341 26Q378 26 414 59T463 140Q466 150 469 151T485 153H489Q504 153 504 145Q504 144 502 134Q486 77 440 33T333 -11Q263 -11 227 52Q186 -10 133 -10H127Q78 -10 57 16T35 71Q35 103 54 123T99 143Q142 143 142 101Q142 81 130 66T107 46T94 41L91 40Q91 39 97 36T113 29T132 26Q168 26 194 71Q203 87 217 139T245 247T261 313Q266 340 266 352Q266 380 251 392T217 404Q177 404 142 372T93 290Q91 281 88 280T72 278H58Q52 284 52 289Z"></path>
<path stroke-width="10" id="E1-MJMAIN-28" d="M94 250Q94 319 104 381T127 488T164 576T202 643T244 695T277 729T302 750H315H319Q333 750 333 741Q333 738 316 720T275 667T226 581T184 443T167 250T184 58T225 -81T274 -167T316 -220T333 -241Q333 -250 318 -250H315H302L274 -226Q180 -141 137 -14T94 250Z"></path>
<path stroke-width="10" id="E1-MJMATHI-79" d="M21 287Q21 301 36 335T84 406T158 442Q199 442 224 419T250 355Q248 336 247 334Q247 331 231 288T198 191T182 105Q182 62 196 45T238 27Q261 27 281 38T312 61T339 94Q339 95 344 114T358 173T377 247Q415 397 419 404Q432 431 462 431Q475 431 483 424T494 412T496 403Q496 390 447 193T391 -23Q363 -106 294 -155T156 -205Q111 -205 77 -183T43 -117Q43 -95 50 -80T69 -58T89 -48T106 -45Q150 -45 150 -87Q150 -107 138 -122T115 -142T102 -147L99 -148Q101 -153 118 -160T152 -167H160Q177 -167 186 -165Q219 -156 247 -127T290 -65T313 -9T321 21L315 17Q309 13 296 6T270 -6Q250 -11 231 -11Q185 -11 150 11T104 82Q103 89 103 113Q103 170 138 262T173 379Q173 380 173 381Q173 390 173 393T169 400T158 404H154Q131 404 112 385T82 344T65 302T57 280Q55 278 41 278H27Q21 284 21 287Z"></path>
<path stroke-width="10" id="E1-MJMAIN-29" d="M60 749L64 750Q69 750 74 750H86L114 726Q208 641 251 514T294 250Q294 182 284 119T261 12T224 -76T186 -143T145 -194T113 -227T90 -246Q87 -249 86 -250H74Q66 -250 63 -250T58 -247T55 -238Q56 -237 66 -225Q221 -64 221 250T66 725Q56 737 55 738Q55 746 60 749Z"></path>
<path stroke-width="10" id="E1-MJMAIN-2E" d="M78 60Q78 84 95 102T138 120Q162 120 180 104T199 61Q199 36 182 18T139 0T96 17T78 60Z"></path>
<path stroke-width="10" id="E1-MJMAIN-52" d="M130 622Q123 629 119 631T103 634T60 637H27V683H202H236H300Q376 683 417 677T500 648Q595 600 609 517Q610 512 610 501Q610 468 594 439T556 392T511 361T472 343L456 338Q459 335 467 332Q497 316 516 298T545 254T559 211T568 155T578 94Q588 46 602 31T640 16H645Q660 16 674 32T692 87Q692 98 696 101T712 105T728 103T732 90Q732 59 716 27T672 -16Q656 -22 630 -22Q481 -16 458 90Q456 101 456 163T449 246Q430 304 373 320L363 322L297 323H231V192L232 61Q238 51 249 49T301 46H334V0H323Q302 3 181 3Q59 3 38 0H27V46H60Q102 47 111 49T130 61V622ZM491 499V509Q491 527 490 539T481 570T462 601T424 623T362 636Q360 636 340 636T304 637H283Q238 637 234 628Q231 624 231 492V360H289Q390 360 434 378T489 456Q491 467 491 499Z"></path>
<path stroke-width="10" id="E1-MJMAIN-65" d="M28 218Q28 273 48 318T98 391T163 433T229 448Q282 448 320 430T378 380T406 316T415 245Q415 238 408 231H126V216Q126 68 226 36Q246 30 270 30Q312 30 342 62Q359 79 369 104L379 128Q382 131 395 131H398Q415 131 415 121Q415 117 412 108Q393 53 349 21T250 -11Q155 -11 92 58T28 218ZM333 275Q322 403 238 411H236Q228 411 220 410T195 402T166 381T143 340T127 274V267H333V275Z"></path>
<path stroke-width="10" id="E1-MJMAIN-63" d="M370 305T349 305T313 320T297 358Q297 381 312 396Q317 401 317 402T307 404Q281 408 258 408Q209 408 178 376Q131 329 131 219Q131 137 162 90Q203 29 272 29Q313 29 338 55T374 117Q376 125 379 127T395 129H409Q415 123 415 120Q415 116 411 104T395 71T366 33T318 2T249 -11Q163 -11 99 53T34 214Q34 318 99 383T250 448T370 421T404 357Q404 334 387 320Z"></path>
<path stroke-width="10" id="E1-MJMAIN-69" d="M69 609Q69 637 87 653T131 669Q154 667 171 652T188 609Q188 579 171 564T129 549Q104 549 87 564T69 609ZM247 0Q232 3 143 3Q132 3 106 3T56 1L34 0H26V46H42Q70 46 91 49Q100 53 102 60T104 102V205V293Q104 345 102 359T88 378Q74 385 41 385H30V408Q30 431 32 431L42 432Q52 433 70 434T106 436Q123 437 142 438T171 441T182 442H185V62Q190 52 197 50T232 46H255V0H247Z"></path>
<path stroke-width="10" id="E1-MJMAIN-76" d="M338 431Q344 429 422 429Q479 429 503 431H508V385H497Q439 381 423 345Q421 341 356 172T288 -2Q283 -11 263 -11Q244 -11 239 -2Q99 359 98 364Q93 378 82 381T43 385H19V431H25L33 430Q41 430 53 430T79 430T104 429T122 428Q217 428 232 431H240V385H226Q187 384 184 370Q184 366 235 234L286 102L377 341V349Q377 363 367 372T349 383T335 385H331V431H338Z"></path>
<path stroke-width="10" id="E1-MJMAIN-6F" d="M28 214Q28 309 93 378T250 448Q340 448 405 380T471 215Q471 120 407 55T250 -10Q153 -10 91 57T28 214ZM250 30Q372 30 372 193V225V250Q372 272 371 288T364 326T348 362T317 390T268 410Q263 411 252 411Q222 411 195 399Q152 377 139 338T126 246V226Q126 130 145 91Q177 30 250 30Z"></path>
<path stroke-width="10" id="E1-MJMAIN-6E" d="M41 46H55Q94 46 102 60V68Q102 77 102 91T102 122T103 161T103 203Q103 234 103 269T102 328V351Q99 370 88 376T43 385H25V408Q25 431 27 431L37 432Q47 433 65 434T102 436Q119 437 138 438T167 441T178 442H181V402Q181 364 182 364T187 369T199 384T218 402T247 421T285 437Q305 442 336 442Q450 438 463 329Q464 322 464 190V104Q464 66 466 59T477 49Q498 46 526 46H542V0H534L510 1Q487 2 460 2T422 3Q319 3 310 0H302V46H318Q379 46 379 62Q380 64 380 200Q379 335 378 343Q372 371 358 385T334 402T308 404Q263 404 229 370Q202 343 195 315T187 232V168V108Q187 78 188 68T191 55T200 49Q221 46 249 46H265V0H257L234 1Q210 2 183 2T145 3Q42 3 33 0H25V46H41Z"></path>
<path stroke-width="10" id="E1-MJMAIN-68" d="M41 46H55Q94 46 102 60V68Q102 77 102 91T102 124T102 167T103 217T103 272T103 329Q103 366 103 407T103 482T102 542T102 586T102 603Q99 622 88 628T43 637H25V660Q25 683 27 683L37 684Q47 685 66 686T103 688Q120 689 140 690T170 693T181 694H184V367Q244 442 328 442Q451 442 463 329Q464 322 464 190V104Q464 66 466 59T477 49Q498 46 526 46H542V0H534L510 1Q487 2 460 2T422 3Q319 3 310 0H302V46H318Q379 46 379 62Q380 64 380 200Q379 335 378 343Q372 371 358 385T334 402T308 404Q263 404 229 370Q202 343 195 315T187 232V168V108Q187 78 188 68T191 55T200 49Q221 46 249 46H265V0H257L234 1Q210 2 183 2T145 3Q42 3 33 0H25V46H41Z"></path>
<path stroke-width="10" id="E1-MJMAIN-61" d="M137 305T115 305T78 320T63 359Q63 394 97 421T218 448Q291 448 336 416T396 340Q401 326 401 309T402 194V124Q402 76 407 58T428 40Q443 40 448 56T453 109V145H493V106Q492 66 490 59Q481 29 455 12T400 -6T353 12T329 54V58L327 55Q325 52 322 49T314 40T302 29T287 17T269 6T247 -2T221 -8T190 -11Q130 -11 82 20T34 107Q34 128 41 147T68 188T116 225T194 253T304 268H318V290Q318 324 312 340Q290 411 215 411Q197 411 181 410T156 406T148 403Q170 388 170 359Q170 334 154 320ZM126 106Q126 75 150 51T209 26Q247 26 276 49T315 109Q317 116 318 175Q318 233 317 233Q309 233 296 232T251 223T193 203T147 166T126 106Z"></path>
<path stroke-width="10" id="E1-MJMAIN-6C" d="M42 46H56Q95 46 103 60V68Q103 77 103 91T103 124T104 167T104 217T104 272T104 329Q104 366 104 407T104 482T104 542T103 586T103 603Q100 622 89 628T44 637H26V660Q26 683 28 683L38 684Q48 685 67 686T104 688Q121 689 141 690T171 693T182 694H185V379Q185 62 186 60Q190 52 198 49Q219 46 247 46H263V0H255L232 1Q209 2 183 2T145 3T107 3T57 1L34 0H26V46H42Z"></path>
<path stroke-width="10" id="E1-MJMAIN-62" d="M307 -11Q234 -11 168 55L158 37Q156 34 153 28T147 17T143 10L138 1L118 0H98V298Q98 599 97 603Q94 622 83 628T38 637H20V660Q20 683 22 683L32 684Q42 685 61 686T98 688Q115 689 135 690T165 693T176 694H179V543Q179 391 180 391L183 394Q186 397 192 401T207 411T228 421T254 431T286 439T323 442Q401 442 461 379T522 216Q522 115 458 52T307 -11ZM182 98Q182 97 187 90T196 79T206 67T218 55T233 44T250 35T271 29T295 26Q330 26 363 46T412 113Q424 148 424 212Q424 287 412 323Q385 405 300 405Q270 405 239 390T188 347L182 339V98Z"></path>
<path stroke-width="10" id="E1-MJMAIN-64" d="M376 495Q376 511 376 535T377 568Q377 613 367 624T316 637H298V660Q298 683 300 683L310 684Q320 685 339 686T376 688Q393 689 413 690T443 693T454 694H457V390Q457 84 458 81Q461 61 472 55T517 46H535V0Q533 0 459 -5T380 -11H373V44L365 37Q307 -11 235 -11Q158 -11 96 50T34 215Q34 315 97 378T244 442Q319 442 376 393V495ZM373 342Q328 405 260 405Q211 405 173 369Q146 341 139 305T131 211Q131 155 138 120T173 59Q203 26 251 26Q322 26 373 103V342Z"></path>
<path stroke-width="10" id="E1-MJMAIN-74" d="M27 422Q80 426 109 478T141 600V615H181V431H316V385H181V241Q182 116 182 100T189 68Q203 29 238 29Q282 29 292 100Q293 108 293 146V181H333V146V134Q333 57 291 17Q264 -10 221 -10Q187 -10 162 2T124 33T105 68T98 100Q97 107 97 248V385H18V422H27Z"></path>
<path stroke-width="10" id="E1-MJMAIN-72" d="M36 46H50Q89 46 97 60V68Q97 77 97 91T98 122T98 161T98 203Q98 234 98 269T98 328L97 351Q94 370 83 376T38 385H20V408Q20 431 22 431L32 432Q42 433 60 434T96 436Q112 437 131 438T160 441T171 442H174V373Q213 441 271 441H277Q322 441 343 419T364 373Q364 352 351 337T313 322Q288 322 276 338T263 372Q263 381 265 388T270 400T273 405Q271 407 250 401Q234 393 226 386Q179 341 179 207V154Q179 141 179 127T179 101T180 81T180 66V61Q181 59 183 57T188 54T193 51T200 49T207 48T216 47T225 47T235 46T245 46H276V0H267Q249 3 140 3Q37 3 28 0H20V46H36Z"></path>
<path stroke-width="10" id="E1-MJMAIN-73" d="M295 316Q295 356 268 385T190 414Q154 414 128 401Q98 382 98 349Q97 344 98 336T114 312T157 287Q175 282 201 278T245 269T277 256Q294 248 310 236T342 195T359 133Q359 71 321 31T198 -10H190Q138 -10 94 26L86 19L77 10Q71 4 65 -1L54 -11H46H42Q39 -11 33 -5V74V132Q33 153 35 157T45 162H54Q66 162 70 158T75 146T82 119T101 77Q136 26 198 26Q295 26 295 104Q295 133 277 151Q257 175 194 187T111 210Q75 227 54 256T33 318Q33 357 50 384T93 424T143 442T187 447H198Q238 447 268 432L283 424L292 431Q302 440 314 448H322H326Q329 448 335 442V310L329 304H301Q295 310 295 316Z"></path>
<path stroke-width="10" id="E1-MJMAIN-75" d="M383 58Q327 -10 256 -10H249Q124 -10 105 89Q104 96 103 226Q102 335 102 348T96 369Q86 385 36 385H25V408Q25 431 27 431L38 432Q48 433 67 434T105 436Q122 437 142 438T172 441T184 442H187V261Q188 77 190 64Q193 49 204 40Q224 26 264 26Q290 26 311 35T343 58T363 90T375 120T379 144Q379 145 379 161T380 201T380 248V315Q380 361 370 372T320 385H302V431Q304 431 378 436T457 442H464V264Q464 84 465 81Q468 61 479 55T524 46H542V0Q540 0 467 -5T390 -11H383V58Z"></path>
<path stroke-width="10" id="E1-MJMAIN-7C" d="M139 -249H137Q125 -249 119 -235V251L120 737Q130 750 139 750Q152 750 159 735V-235Q151 -249 141 -249H139Z"></path>
<path stroke-width="10" id="E1-MJMAIN-AF" d="M69 544V590H430V544H69Z"></path>
<path stroke-width="10" id="E1-MJMAIN-27E8" d="M333 -232Q332 -239 327 -244T313 -250Q303 -250 296 -240Q293 -233 202 6T110 250T201 494T296 740Q299 745 306 749L309 750Q312 750 313 750Q331 750 333 732Q333 727 243 489Q152 252 152 250T243 11Q333 -227 333 -232Z"></path>
<path stroke-width="10" id="E1-MJMAIN-27E9" d="M55 732Q56 739 61 744T75 750Q85 750 92 740Q95 733 186 494T278 250T187 6T92 -240Q85 -250 75 -250Q67 -250 62 -245T55 -232Q55 -227 145 11Q236 248 236 250T145 489Q55 727 55 732Z"></path>
<path stroke-width="10" id="E1-MJMAIN-53" d="M55 507Q55 590 112 647T243 704H257Q342 704 405 641L426 672Q431 679 436 687T446 700L449 704Q450 704 453 704T459 705H463Q466 705 472 699V462L466 456H448Q437 456 435 459T430 479Q413 605 329 646Q292 662 254 662Q201 662 168 626T135 542Q135 508 152 480T200 435Q210 431 286 412T370 389Q427 367 463 314T500 191Q500 110 448 45T301 -21Q245 -21 201 -4T140 27L122 41Q118 36 107 21T87 -7T78 -21Q76 -22 68 -22H64Q61 -22 55 -16V101Q55 220 56 222Q58 227 76 227H89Q95 221 95 214Q95 182 105 151T139 90T205 42T305 24Q352 24 386 62T420 155Q420 198 398 233T340 281Q284 295 266 300Q261 301 239 306T206 314T174 325T141 343T112 367T85 402Q55 451 55 507Z"></path>
<path stroke-width="10" id="E1-MJMAIN-6D" d="M41 46H55Q94 46 102 60V68Q102 77 102 91T102 122T103 161T103 203Q103 234 103 269T102 328V351Q99 370 88 376T43 385H25V408Q25 431 27 431L37 432Q47 433 65 434T102 436Q119 437 138 438T167 441T178 442H181V402Q181 364 182 364T187 369T199 384T218 402T247 421T285 437Q305 442 336 442Q351 442 364 440T387 434T406 426T421 417T432 406T441 395T448 384T452 374T455 366L457 361L460 365Q463 369 466 373T475 384T488 397T503 410T523 422T546 432T572 439T603 442Q729 442 740 329Q741 322 741 190V104Q741 66 743 59T754 49Q775 46 803 46H819V0H811L788 1Q764 2 737 2T699 3Q596 3 587 0H579V46H595Q656 46 656 62Q657 64 657 200Q656 335 655 343Q649 371 635 385T611 402T585 404Q540 404 506 370Q479 343 472 315T464 232V168V108Q464 78 465 68T468 55T477 49Q498 46 526 46H542V0H534L510 1Q487 2 460 2T422 3Q319 3 310 0H302V46H318Q379 46 379 62Q380 64 380 200Q379 335 378 343Q372 371 358 385T334 402T308 404Q263 404 229 370Q202 343 195 315T187 232V168V108Q187 78 188 68T191 55T200 49Q221 46 249 46H265V0H257L234 1Q210 2 183 2T145 3Q42 3 33 0H25V46H41Z"></path>
<path stroke-width="10" id="E1-MJMAIN-79" d="M69 -66Q91 -66 104 -80T118 -116Q118 -134 109 -145T91 -160Q84 -163 97 -166Q104 -168 111 -168Q131 -168 148 -159T175 -138T197 -106T213 -75T225 -43L242 0L170 183Q150 233 125 297Q101 358 96 368T80 381Q79 382 78 382Q66 385 34 385H19V431H26L46 430Q65 430 88 429T122 428Q129 428 142 428T171 429T200 430T224 430L233 431H241V385H232Q183 385 185 366L286 112Q286 113 332 227L376 341V350Q376 365 366 373T348 383T334 385H331V431H337H344Q351 431 361 431T382 430T405 429T422 429Q477 429 503 431H508V385H497Q441 380 422 345Q420 343 378 235T289 9T227 -131Q180 -204 113 -204Q69 -204 44 -177T19 -116Q19 -89 35 -78T69 -66Z"></path>
<path stroke-width="10" id="E1-MJMATHI-3BD" d="M74 431Q75 431 146 436T219 442Q231 442 231 434Q231 428 185 241L137 51H140L150 55Q161 59 177 67T214 86T261 119T312 165Q410 264 445 394Q458 442 496 442Q509 442 519 434T530 411Q530 390 516 352T469 262T388 162T267 70T106 5Q81 -2 71 -2Q66 -2 59 -1T51 1Q45 5 45 11Q45 13 88 188L132 364Q133 377 125 380T86 385H65Q59 391 59 393T61 412Q65 431 74 431Z"></path>
<path stroke-width="10" id="E1-MJMAIN-43" d="M56 342Q56 428 89 500T174 615T283 681T391 705Q394 705 400 705T408 704Q499 704 569 636L582 624L612 663Q639 700 643 704Q644 704 647 704T653 705H657Q660 705 666 699V419L660 413H626Q620 419 619 430Q610 512 571 572T476 651Q457 658 426 658Q322 658 252 588Q173 509 173 342Q173 221 211 151Q232 111 263 84T328 45T384 29T428 24Q517 24 571 93T626 244Q626 251 632 257H660L666 251V236Q661 133 590 56T403 -21Q262 -21 159 83T56 342Z"></path>
<path stroke-width="10" id="E1-MJMAIN-77" d="M90 368Q84 378 76 380T40 385H18V431H24L43 430Q62 430 84 429T116 428Q206 428 221 431H229V385H215Q177 383 177 368Q177 367 221 239L265 113L339 328L333 345Q323 374 316 379Q308 384 278 385H258V431H264Q270 428 348 428Q439 428 454 431H461V385H452Q404 385 404 369Q404 366 418 324T449 234T481 143L496 100L537 219Q579 341 579 347Q579 363 564 373T530 385H522V431H529Q541 428 624 428Q692 428 698 431H703V385H697Q696 385 691 385T682 384Q635 377 619 334L559 161Q546 124 528 71Q508 12 503 1T487 -11H479Q460 -11 456 -4Q455 -3 407 133L361 267Q359 263 266 -4Q261 -11 243 -11H238Q225 -11 220 -3L90 368Z"></path>
<path stroke-width="10" id="E1-MJMAIN-21" d="M78 661Q78 682 96 699T138 716T180 700T199 661Q199 654 179 432T158 206Q156 198 139 198Q121 198 119 206Q118 209 98 431T78 661ZM79 61Q79 89 97 105T141 121Q164 119 181 104T198 61Q198 31 181 16T139 1Q114 1 97 16T79 61Z"></path>
<path stroke-width="10" id="E1-MJMAIN-70" d="M36 -148H50Q89 -148 97 -134V-126Q97 -119 97 -107T97 -77T98 -38T98 6T98 55T98 106Q98 140 98 177T98 243T98 296T97 335T97 351Q94 370 83 376T38 385H20V408Q20 431 22 431L32 432Q42 433 61 434T98 436Q115 437 135 438T165 441T176 442H179V416L180 390L188 397Q247 441 326 441Q407 441 464 377T522 216Q522 115 457 52T310 -11Q242 -11 190 33L182 40V-45V-101Q182 -128 184 -134T195 -145Q216 -148 244 -148H260V-194H252L228 -193Q205 -192 178 -192T140 -191Q37 -191 28 -194H20V-148H36ZM424 218Q424 292 390 347T305 402Q234 402 182 337V98Q222 26 294 26Q345 26 384 80T424 218Z"></path>
<path stroke-width="10" id="E1-MJMAIN-66" d="M273 0Q255 3 146 3Q43 3 34 0H26V46H42Q70 46 91 49Q99 52 103 60Q104 62 104 224V385H33V431H104V497L105 564L107 574Q126 639 171 668T266 704Q267 704 275 704T289 705Q330 702 351 679T372 627Q372 604 358 590T321 576T284 590T270 627Q270 647 288 667H284Q280 668 273 668Q245 668 223 647T189 592Q183 572 182 497V431H293V385H185V225Q185 63 186 61T189 57T194 54T199 51T206 49T213 48T222 47T231 47T241 46T251 46H282V0H273Z"></path>
<path stroke-width="10" id="E1-MJMAIN-30" d="M96 585Q152 666 249 666Q297 666 345 640T423 548Q460 465 460 320Q460 165 417 83Q397 41 362 16T301 -15T250 -22Q224 -22 198 -16T137 16T82 83Q39 165 39 320Q39 494 96 585ZM321 597Q291 629 250 629Q208 629 178 597Q153 571 145 525T137 333Q137 175 145 125T181 46Q209 16 250 16Q290 16 318 46Q347 76 354 130T362 333Q362 478 354 524T321 597Z"></path>
<path stroke-width="10" id="E1-MJMAIN-54" d="M36 443Q37 448 46 558T55 671V677H666V671Q667 666 676 556T685 443V437H645V443Q645 445 642 478T631 544T610 593Q593 614 555 625Q534 630 478 630H451H443Q417 630 414 618Q413 616 413 339V63Q420 53 439 50T528 46H558V0H545L361 3Q186 1 177 0H164V46H194Q264 46 283 49T309 63V339V550Q309 620 304 625T271 630H244H224Q154 630 119 601Q101 585 93 554T81 486T76 443V437H36V443Z"></path>
</defs>
<g stroke="currentColor" fill="currentColor" stroke-width="0" transform="matrix(1 0 0 -1 0 0)">
<g transform="translate(167,0)">
<g transform="translate(-11,0)">
<g transform="translate(0,3378)">
 <use xlink:href="#E1-MJMATHI-50" x="0" y="0"></use>
 <use xlink:href="#E1-MJMAIN-2C" x="756" y="0"></use>
 <use xlink:href="#E1-MJMATHI-51" x="1205" y="0"></use>
 <use xlink:href="#E1-MJMAIN-2C" x="2001" y="0"></use>
 <use xlink:href="#E1-MJMATHI-52" x="2451" y="0"></use>
<g transform="translate(3493,0)">
 <use xlink:href="#E1-MJMAIN-3A"></use>
 <use xlink:href="#E1-MJMAIN-3A" x="283" y="0"></use>
 <use xlink:href="#E1-MJMAIN-3D" x="566" y="0"></use>
</g>
</g>
<g transform="translate(4225,2018)">
 <use xlink:href="#E1-MJMAIN-7C" x="0" y="0"></use>
</g>
<g transform="translate(4225,658)">
 <use xlink:href="#E1-MJMAIN-7C" x="0" y="0"></use>
</g>
<g transform="translate(4225,-701)">
 <use xlink:href="#E1-MJMAIN-7C" x="0" y="0"></use>
</g>
<g transform="translate(4225,-2061)">
 <use xlink:href="#E1-MJMAIN-7C" x="0" y="0"></use>
</g>
<g transform="translate(4225,-3420)">
 <use xlink:href="#E1-MJMAIN-7C" x="0" y="0"></use>
</g>
</g>
<g transform="translate(4998,0)">
<g transform="translate(0,3378)">
 <use xlink:href="#E1-MJMATHI-78" x="0" y="0"></use>
 <use xlink:href="#E1-MJMAIN-28" x="577" y="0"></use>
 <use xlink:href="#E1-MJMATHI-79" x="971" y="0"></use>
 <use xlink:href="#E1-MJMAIN-29" x="1473" y="0"></use>
 <use xlink:href="#E1-MJMAIN-2E" x="1867" y="0"></use>
 <use xlink:href="#E1-MJMATHI-50" x="2316" y="0"></use>
</g>
<g transform="translate(0,2018)">
 <use xlink:href="#E1-MJMATHI-78" x="24" y="0"></use>
<g transform="translate(0,274)">
 <use transform="scale(0.707)" xlink:href="#E1-MJMAIN-AF" x="-74" y="0"></use>
<g transform="translate(241.64034331370345,0) scale(0.26039120634148394,1)">
 <use transform="scale(0.707)" xlink:href="#E1-MJMAIN-AF"></use>
</g>
 <use transform="scale(0.707)" xlink:href="#E1-MJMAIN-AF" x="381" y="0"></use>
</g>
 <use xlink:href="#E1-MJMAIN-27E8" x="626" y="0"></use>
 <use xlink:href="#E1-MJMATHI-79" x="1020" y="0"></use>
 <use xlink:href="#E1-MJMAIN-27E9" x="1522" y="0"></use>
 <use xlink:href="#E1-MJMAIN-2E" x="1916" y="0"></use>
 <use xlink:href="#E1-MJMATHI-50" x="2366" y="0"></use>
</g>
<g transform="translate(0,658)">
 <use xlink:href="#E1-MJMATHI-50" x="0" y="0"></use>
 <use xlink:href="#E1-MJMAIN-7C" x="756" y="0"></use>
 <use xlink:href="#E1-MJMATHI-51" x="1039" y="0"></use>
</g>
<g transform="translate(0,-701)">
 <use xlink:href="#E1-MJMAIN-28" x="0" y="0"></use>
 <use xlink:href="#E1-MJMATHI-3BD" x="394" y="0"></use>
 <use xlink:href="#E1-MJMATHI-78" x="929" y="0"></use>
 <use xlink:href="#E1-MJMAIN-29" x="1506" y="0"></use>
 <use xlink:href="#E1-MJMATHI-50" x="1900" y="0"></use>
</g>
<g transform="translate(0,-2061)">
 <use xlink:href="#E1-MJMAIN-21" x="0" y="0"></use>
 <use xlink:href="#E1-MJMATHI-50" x="283" y="0"></use>
</g>
 <use xlink:href="#E1-MJMAIN-30" x="0" y="-3420"></use>
</g>
<g transform="translate(10953,0)">
<g transform="translate(0,3378)">
 <use xlink:href="#E1-MJMAIN-52"></use>
 <use xlink:href="#E1-MJMAIN-65" x="741" y="0"></use>
 <use xlink:href="#E1-MJMAIN-63" x="1190" y="0"></use>
 <use xlink:href="#E1-MJMAIN-65" x="1639" y="0"></use>
 <use xlink:href="#E1-MJMAIN-69" x="2088" y="0"></use>
 <use xlink:href="#E1-MJMAIN-76" x="2371" y="0"></use>
 <use xlink:href="#E1-MJMAIN-65" x="2904" y="0"></use>
 <use xlink:href="#E1-MJMAIN-6F" x="3603" y="0"></use>
 <use xlink:href="#E1-MJMAIN-6E" x="4108" y="0"></use>
 <use xlink:href="#E1-MJMAIN-63" x="4919" y="0"></use>
 <use xlink:href="#E1-MJMAIN-68" x="5368" y="0"></use>
 <use xlink:href="#E1-MJMAIN-61" x="5929" y="0"></use>
 <use xlink:href="#E1-MJMAIN-6E" x="6434" y="0"></use>
 <use xlink:href="#E1-MJMAIN-6E" x="6995" y="0"></use>
 <use xlink:href="#E1-MJMAIN-65" x="7556" y="0"></use>
 <use xlink:href="#E1-MJMAIN-6C" x="8005" y="0"></use>
 <use xlink:href="#E1-MJMATHI-78" x="8538" y="0"></use>
<g transform="translate(9115,0)">
 <use xlink:href="#E1-MJMAIN-2C"></use>
 <use xlink:href="#E1-MJMAIN-62" x="533" y="0"></use>
 <use xlink:href="#E1-MJMAIN-69" x="1094" y="0"></use>
 <use xlink:href="#E1-MJMAIN-6E" x="1377" y="0"></use>
 <use xlink:href="#E1-MJMAIN-64" x="1938" y="0"></use>
 <use xlink:href="#E1-MJMAIN-74" x="2749" y="0"></use>
 <use xlink:href="#E1-MJMAIN-68" x="3143" y="0"></use>
 <use xlink:href="#E1-MJMAIN-65" x="3704" y="0"></use>
 <use xlink:href="#E1-MJMAIN-72" x="4403" y="0"></use>
 <use xlink:href="#E1-MJMAIN-65" x="4800" y="0"></use>
 <use xlink:href="#E1-MJMAIN-73" x="5249" y="0"></use>
 <use xlink:href="#E1-MJMAIN-75" x="5648" y="0"></use>
 <use xlink:href="#E1-MJMAIN-6C" x="6209" y="0"></use>
 <use xlink:href="#E1-MJMAIN-74" x="6492" y="0"></use>
 <use xlink:href="#E1-MJMAIN-74" x="7136" y="0"></use>
 <use xlink:href="#E1-MJMAIN-6F" x="7530" y="0"></use>
</g>
 <use xlink:href="#E1-MJMATHI-79" x="17400" y="0"></use>
<g transform="translate(17902,0)">
 <use xlink:href="#E1-MJMAIN-2C"></use>
 <use xlink:href="#E1-MJMAIN-74" x="533" y="0"></use>
 <use xlink:href="#E1-MJMAIN-68" x="927" y="0"></use>
 <use xlink:href="#E1-MJMAIN-65" x="1488" y="0"></use>
 <use xlink:href="#E1-MJMAIN-6E" x="1937" y="0"></use>
 <use xlink:href="#E1-MJMAIN-72" x="2748" y="0"></use>
 <use xlink:href="#E1-MJMAIN-75" x="3145" y="0"></use>
 <use xlink:href="#E1-MJMAIN-6E" x="3706" y="0"></use>
</g>
 <use xlink:href="#E1-MJMATHI-50" x="22419" y="0"></use>
</g>
<g transform="translate(4203,2018)">
 <use xlink:href="#E1-MJMAIN-53"></use>
 <use xlink:href="#E1-MJMAIN-65" x="561" y="0"></use>
 <use xlink:href="#E1-MJMAIN-6E" x="1010" y="0"></use>
 <use xlink:href="#E1-MJMAIN-64" x="1571" y="0"></use>
 <use xlink:href="#E1-MJMAIN-74" x="2382" y="0"></use>
 <use xlink:href="#E1-MJMAIN-68" x="2776" y="0"></use>
 <use xlink:href="#E1-MJMAIN-65" x="3337" y="0"></use>
 <use xlink:href="#E1-MJMAIN-76" x="4036" y="0"></use>
 <use xlink:href="#E1-MJMAIN-61" x="4569" y="0"></use>
 <use xlink:href="#E1-MJMAIN-6C" x="5074" y="0"></use>
 <use xlink:href="#E1-MJMAIN-75" x="5357" y="0"></use>
 <use xlink:href="#E1-MJMAIN-65" x="5918" y="0"></use>
 <use xlink:href="#E1-MJMATHI-79" x="6617" y="0"></use>
<g transform="translate(7119,0)">
 <use xlink:href="#E1-MJMAIN-6F" x="250" y="0"></use>
 <use xlink:href="#E1-MJMAIN-76" x="755" y="0"></use>
 <use xlink:href="#E1-MJMAIN-65" x="1288" y="0"></use>
 <use xlink:href="#E1-MJMAIN-72" x="1737" y="0"></use>
 <use xlink:href="#E1-MJMAIN-63" x="2384" y="0"></use>
 <use xlink:href="#E1-MJMAIN-68" x="2833" y="0"></use>
 <use xlink:href="#E1-MJMAIN-61" x="3394" y="0"></use>
 <use xlink:href="#E1-MJMAIN-6E" x="3899" y="0"></use>
 <use xlink:href="#E1-MJMAIN-6E" x="4460" y="0"></use>
 <use xlink:href="#E1-MJMAIN-65" x="5021" y="0"></use>
 <use xlink:href="#E1-MJMAIN-6C" x="5470" y="0"></use>
</g>
 <use xlink:href="#E1-MJMATHI-78" x="13122" y="0"></use>
<g transform="translate(13699,0)">
 <use xlink:href="#E1-MJMAIN-2C"></use>
 <use xlink:href="#E1-MJMAIN-74" x="533" y="0"></use>
 <use xlink:href="#E1-MJMAIN-68" x="927" y="0"></use>
 <use xlink:href="#E1-MJMAIN-65" x="1488" y="0"></use>
 <use xlink:href="#E1-MJMAIN-6E" x="1937" y="0"></use>
 <use xlink:href="#E1-MJMAIN-72" x="2748" y="0"></use>
 <use xlink:href="#E1-MJMAIN-75" x="3145" y="0"></use>
 <use xlink:href="#E1-MJMAIN-6E" x="3706" y="0"></use>
</g>
 <use xlink:href="#E1-MJMATHI-50" x="18216" y="0"></use>
</g>
<g transform="translate(10579,658)">
 <use xlink:href="#E1-MJMAIN-52"></use>
 <use xlink:href="#E1-MJMAIN-75" x="741" y="0"></use>
 <use xlink:href="#E1-MJMAIN-6E" x="1302" y="0"></use>
 <use xlink:href="#E1-MJMATHI-50" x="2113" y="0"></use>
<g transform="translate(2869,0)">
 <use xlink:href="#E1-MJMAIN-61" x="250" y="0"></use>
 <use xlink:href="#E1-MJMAIN-6E" x="755" y="0"></use>
 <use xlink:href="#E1-MJMAIN-64" x="1316" y="0"></use>
</g>
 <use xlink:href="#E1-MJMATHI-51" x="4996" y="0"></use>
<g transform="translate(5792,0)">
 <use xlink:href="#E1-MJMAIN-73" x="250" y="0"></use>
 <use xlink:href="#E1-MJMAIN-69" x="649" y="0"></use>
 <use xlink:href="#E1-MJMAIN-6D" x="932" y="0"></use>
 <use xlink:href="#E1-MJMAIN-75" x="1770" y="0"></use>
 <use xlink:href="#E1-MJMAIN-6C" x="2331" y="0"></use>
 <use xlink:href="#E1-MJMAIN-74" x="2614" y="0"></use>
 <use xlink:href="#E1-MJMAIN-61" x="3008" y="0"></use>
 <use xlink:href="#E1-MJMAIN-6E" x="3513" y="0"></use>
 <use xlink:href="#E1-MJMAIN-65" x="4074" y="0"></use>
 <use xlink:href="#E1-MJMAIN-6F" x="4523" y="0"></use>
 <use xlink:href="#E1-MJMAIN-75" x="5028" y="0"></use>
 <use xlink:href="#E1-MJMAIN-73" x="5589" y="0"></use>
 <use xlink:href="#E1-MJMAIN-6C" x="5988" y="0"></use>
 <use xlink:href="#E1-MJMAIN-79" x="6271" y="0"></use>
</g>
</g>
<g transform="translate(8414,-701)">
 <use xlink:href="#E1-MJMAIN-43"></use>
 <use xlink:href="#E1-MJMAIN-72" x="727" y="0"></use>
 <use xlink:href="#E1-MJMAIN-65" x="1124" y="0"></use>
 <use xlink:href="#E1-MJMAIN-61" x="1573" y="0"></use>
 <use xlink:href="#E1-MJMAIN-74" x="2078" y="0"></use>
 <use xlink:href="#E1-MJMAIN-65" x="2472" y="0"></use>
 <use xlink:href="#E1-MJMAIN-61" x="3171" y="0"></use>
 <use xlink:href="#E1-MJMAIN-6E" x="3926" y="0"></use>
 <use xlink:href="#E1-MJMAIN-65" x="4487" y="0"></use>
 <use xlink:href="#E1-MJMAIN-77" x="4936" y="0"></use>
 <use xlink:href="#E1-MJMAIN-63" x="5913" y="0"></use>
 <use xlink:href="#E1-MJMAIN-68" x="6362" y="0"></use>
 <use xlink:href="#E1-MJMAIN-61" x="6923" y="0"></use>
 <use xlink:href="#E1-MJMAIN-6E" x="7428" y="0"></use>
 <use xlink:href="#E1-MJMAIN-6E" x="7989" y="0"></use>
 <use xlink:href="#E1-MJMAIN-65" x="8550" y="0"></use>
 <use xlink:href="#E1-MJMAIN-6C" x="8999" y="0"></use>
 <use xlink:href="#E1-MJMATHI-78" x="9532" y="0"></use>
<g transform="translate(10109,0)">
 <use xlink:href="#E1-MJMAIN-61" x="250" y="0"></use>
 <use xlink:href="#E1-MJMAIN-6E" x="755" y="0"></use>
 <use xlink:href="#E1-MJMAIN-64" x="1316" y="0"></use>
 <use xlink:href="#E1-MJMAIN-72" x="2127" y="0"></use>
 <use xlink:href="#E1-MJMAIN-75" x="2524" y="0"></use>
 <use xlink:href="#E1-MJMAIN-6E" x="3085" y="0"></use>
</g>
 <use xlink:href="#E1-MJMATHI-50" x="14005" y="0"></use>
</g>
<g transform="translate(10279,-2061)">
 <use xlink:href="#E1-MJMAIN-52"></use>
 <use xlink:href="#E1-MJMAIN-65" x="741" y="0"></use>
 <use xlink:href="#E1-MJMAIN-70" x="1190" y="0"></use>
 <use xlink:href="#E1-MJMAIN-65" x="1751" y="0"></use>
 <use xlink:href="#E1-MJMAIN-61" x="2200" y="0"></use>
 <use xlink:href="#E1-MJMAIN-74" x="2705" y="0"></use>
 <use xlink:href="#E1-MJMAIN-65" x="3099" y="0"></use>
 <use xlink:href="#E1-MJMAIN-64" x="3548" y="0"></use>
 <use xlink:href="#E1-MJMAIN-6C" x="4109" y="0"></use>
 <use xlink:href="#E1-MJMAIN-79" x="4392" y="0"></use>
 <use xlink:href="#E1-MJMAIN-73" x="5175" y="0"></use>
 <use xlink:href="#E1-MJMAIN-70" x="5574" y="0"></use>
 <use xlink:href="#E1-MJMAIN-61" x="6135" y="0"></use>
 <use xlink:href="#E1-MJMAIN-77" x="6640" y="0"></use>
 <use xlink:href="#E1-MJMAIN-6E" x="7367" y="0"></use>
 <use xlink:href="#E1-MJMAIN-63" x="8178" y="0"></use>
 <use xlink:href="#E1-MJMAIN-6F" x="8627" y="0"></use>
 <use xlink:href="#E1-MJMAIN-70" x="9132" y="0"></use>
 <use xlink:href="#E1-MJMAIN-69" x="9693" y="0"></use>
 <use xlink:href="#E1-MJMAIN-65" x="9976" y="0"></use>
 <use xlink:href="#E1-MJMAIN-73" x="10425" y="0"></use>
 <use xlink:href="#E1-MJMAIN-6F" x="11074" y="0"></use>
 <use xlink:href="#E1-MJMAIN-66" x="11579" y="0"></use>
 <use xlink:href="#E1-MJMATHI-50" x="12140" y="0"></use>
</g>
<g transform="translate(13509,-3420)">
 <use xlink:href="#E1-MJMAIN-54"></use>
 <use xlink:href="#E1-MJMAIN-65" x="727" y="0"></use>
 <use xlink:href="#E1-MJMAIN-72" x="1176" y="0"></use>
 <use xlink:href="#E1-MJMAIN-6D" x="1573" y="0"></use>
 <use xlink:href="#E1-MJMAIN-69" x="2411" y="0"></use>
 <use xlink:href="#E1-MJMAIN-6E" x="2694" y="0"></use>
 <use xlink:href="#E1-MJMAIN-61" x="3255" y="0"></use>
 <use xlink:href="#E1-MJMAIN-74" x="3760" y="0"></use>
 <use xlink:href="#E1-MJMAIN-65" x="4154" y="0"></use>
 <use xlink:href="#E1-MJMAIN-74" x="4853" y="0"></use>
 <use xlink:href="#E1-MJMAIN-68" x="5247" y="0"></use>
 <use xlink:href="#E1-MJMAIN-65" x="5808" y="0"></use>
 <use xlink:href="#E1-MJMAIN-70" x="6507" y="0"></use>
 <use xlink:href="#E1-MJMAIN-72" x="7068" y="0"></use>
 <use xlink:href="#E1-MJMAIN-6F" x="7465" y="0"></use>
 <use xlink:href="#E1-MJMAIN-63" x="7970" y="0"></use>
 <use xlink:href="#E1-MJMAIN-65" x="8419" y="0"></use>
 <use xlink:href="#E1-MJMAIN-73" x="8868" y="0"></use>
 <use xlink:href="#E1-MJMAIN-73" x="9267" y="0"></use>
</g>
</g>
</g>
</g>
</svg>